<?xml version="1.0" encoding="UTF-8"?>
<svg id="Logo" xmlns="http://www.w3.org/2000/svg" viewBox="0 0 502 502">
  <defs>
    <style>
      .cls-1 {
        fill: #fff;
        stroke-width: 0px;
      }
    </style>
  </defs>
  <path class="cls-1" d="M251,1C110.17,1,1,104.16,1,243.5c0,72.89,29.87,135.86,78.51,179.37,4.09,3.65,6.55,8.78,6.72,14.25l1.36,44.48c.43,14.18,15.09,23.41,28.06,17.68l49.62-21.91c4.21-1.85,8.92-2.2,13.35-.97,22.81,6.27,47.07,9.61,72.37,9.61,140.83,0,250-103.16,250-242.5S391.83,1,251,1ZM405.92,178.79l-87.04,134.52c-4.42,6.83-13.53,8.78-20.36,4.36l-80.63-52.17c-3.12-2.02-7.16-1.96-10.22.15l-90.88,62.68c-13.26,9.14-29.47-6.59-20.72-20.11l87.05-134.52c4.42-6.83,13.53-8.78,20.35-4.36l80.65,52.18c3.12,2.02,7.16,1.96,10.22-.15l90.86-62.67c13.26-9.15,29.47,6.59,20.72,20.11Z"/>
</svg>